<svg width="15" height="26" viewBox="0 0 15 26" fill="none" xmlns="http://www.w3.org/2000/svg">
<path d="M0.339721 13.5015L12.5114 25.1171C12.7144 25.311 12.9843 25.4192 13.2648 25.4192C13.5454 25.4192 13.8152 25.311 14.0183 25.1171L14.0314 25.104C14.1302 25.01 14.2089 24.8968 14.2627 24.7714C14.3164 24.646 14.3441 24.5109 14.3441 24.3744C14.3441 24.238 14.3164 24.1029 14.2627 23.9775C14.2089 23.8521 14.1302 23.7389 14.0314 23.6449L2.56962 12.7074L14.0314 1.77429C14.1302 1.68029 14.2089 1.56714 14.2627 1.44172C14.3164 1.31631 14.3441 1.18125 14.3441 1.04476C14.3441 0.908278 14.3164 0.773218 14.2627 0.647802C14.2089 0.522387 14.1302 0.409235 14.0314 0.315231L14.0183 0.302105C13.8152 0.108194 13.5454 2.09808e-05 13.2648 2.09808e-05C12.9843 2.09808e-05 12.7144 0.108194 12.5114 0.302105L0.339721 11.9177C0.232677 12.0199 0.147457 12.1427 0.0892294 12.2789C0.0310013 12.415 0.000976563 12.5615 0.000976563 12.7096C0.000976563 12.8577 0.0310013 13.0042 0.0892294 13.1404C0.147457 13.2765 0.232677 13.3993 0.339721 13.5015Z" fill="#616161"/>
</svg>
