<svg width="81" height="71" viewBox="0 0 81 71" fill="none" xmlns="http://www.w3.org/2000/svg">
<path d="M41.9839 1.48617C42.9332 0.534578 44.2207 0 45.5631 0C46.9055 0 48.193 0.534578 49.1423 1.48617L79.5178 31.9419C80.4668 32.8938 81 34.1847 81 35.5306C81 36.8766 80.4668 38.1675 79.5178 39.1193L49.1423 69.5751C48.1875 70.4997 46.9087 71.0114 45.5813 70.9998C44.2539 70.9882 42.9842 70.4544 42.0455 69.5133C41.1069 68.5722 40.5745 67.299 40.5629 65.9681C40.5514 64.6372 41.0617 63.355 41.9839 62.3977L63.7175 40.6066H5.06257C3.71989 40.6066 2.43221 40.0718 1.48279 39.1199C0.533377 38.168 0 36.8769 0 35.5306C0 34.1844 0.533377 32.8933 1.48279 31.9414C2.43221 30.9895 3.71989 30.4547 5.06257 30.4547H63.7175L41.9839 8.66358C41.0348 7.7117 40.5016 6.42084 40.5016 5.07488C40.5016 3.72891 41.0348 2.43806 41.9839 1.48617Z" fill="#4693ED"/>
</svg>
