<svg width="22" height="14" viewBox="0 0 22 14" fill="none" xmlns="http://www.w3.org/2000/svg">
<path fill-rule="evenodd" clip-rule="evenodd" d="M0 6.74026C0 6.54166 0.0790176 6.3512 0.21967 6.21077C0.360322 6.07034 0.551088 5.99144 0.75 5.99144H18.4395L13.719 1.27992C13.5782 1.13931 13.4991 0.948606 13.4991 0.749758C13.4991 0.55091 13.5782 0.360206 13.719 0.219599C13.8598 0.078992 14.0508 4.68503e-09 14.25 0C14.4492 -4.68503e-09 14.6402 0.078992 14.781 0.219599L20.781 6.2101C20.8508 6.27966 20.9063 6.36229 20.9441 6.45326C20.9819 6.54424 21.0013 6.64176 21.0013 6.74026C21.0013 6.83875 20.9819 6.93628 20.9441 7.02725C20.9063 7.11823 20.8508 7.20086 20.781 7.27042L14.781 13.2609C14.6402 13.4015 14.4492 13.4805 14.25 13.4805C14.0508 13.4805 13.8598 13.4015 13.719 13.2609C13.5782 13.1203 13.4991 12.9296 13.4991 12.7308C13.4991 12.5319 13.5782 12.3412 13.719 12.2006L18.4395 7.48907H0.75C0.551088 7.48907 0.360322 7.41018 0.21967 7.26975C0.0790176 7.12932 0 6.93885 0 6.74026Z" fill="#F5F4F4"/>
</svg>
