<svg width="48" height="48" viewBox="0 0 48 48" fill="none" xmlns="http://www.w3.org/2000/svg">
<path d="M10.3299 11.9229C10.2253 11.8183 10.1424 11.6941 10.0857 11.5575C10.0291 11.4208 10 11.2743 10 11.1264C10 10.9785 10.0291 10.832 10.0857 10.6954C10.1424 10.5587 10.2253 10.4345 10.3299 10.3299C10.4345 10.2253 10.5587 10.1424 10.6954 10.0857C10.832 10.0291 10.9785 10 11.1264 10C11.2743 10 11.4208 10.0291 11.5575 10.0857C11.6941 10.1424 11.8183 10.2253 11.9229 10.3299L23.5014 21.9107L35.0799 10.3299C35.1845 10.2253 35.3087 10.1424 35.4454 10.0857C35.582 10.0291 35.7285 10 35.8764 10C36.0243 10 36.1708 10.0291 36.3075 10.0857C36.4441 10.1424 36.5683 10.2253 36.6729 10.3299C36.7775 10.4345 36.8605 10.5587 36.9171 10.6954C36.9737 10.832 37.0028 10.9785 37.0028 11.1264C37.0028 11.2743 36.9737 11.4208 36.9171 11.5575C36.8605 11.6941 36.7775 11.8183 36.6729 11.9229L25.0922 23.5014L36.6729 35.0799C36.7775 35.1845 36.8605 35.3087 36.9171 35.4454C36.9737 35.582 37.0028 35.7285 37.0028 35.8764C37.0028 36.0243 36.9737 36.1708 36.9171 36.3075C36.8605 36.4441 36.7775 36.5683 36.6729 36.6729C36.5683 36.7775 36.4441 36.8605 36.3075 36.9171C36.1708 36.9737 36.0243 37.0028 35.8764 37.0028C35.7285 37.0028 35.582 36.9737 35.4454 36.9171C35.3087 36.8605 35.1845 36.7775 35.0799 36.6729L23.5014 25.0922L11.9229 36.6729C11.8183 36.7775 11.6941 36.8605 11.5575 36.9171C11.4208 36.9737 11.2743 37.0028 11.1264 37.0028C10.9785 37.0028 10.832 36.9737 10.6954 36.9171C10.5587 36.8605 10.4345 36.7775 10.3299 36.6729C10.2253 36.5683 10.1424 36.4441 10.0857 36.3075C10.0291 36.1708 10 36.0243 10 35.8764C10 35.7285 10.0291 35.582 10.0857 35.4454C10.1424 35.3087 10.2253 35.1845 10.3299 35.0799L21.9107 23.5014L10.3299 11.9229Z" fill="white"/>
</svg>
