<svg width="49" height="34" viewBox="0 0 49 34" fill="none" xmlns="http://www.w3.org/2000/svg">
<path d="M24.1161 5.95214L24.514 6.47514L24.9119 5.95214C27.0609 3.12763 30.8802 1.29517 35.2617 1.29517C42.1664 1.29517 47.6589 6.00547 47.6589 11.5823C47.6589 14.0997 46.2744 16.6813 44.0884 19.1745C41.9107 21.6583 38.993 23.9908 36.0541 26.002C33.1184 28.0109 30.1799 29.6869 27.9736 30.8612C26.871 31.4481 25.9525 31.909 25.3104 32.2228C24.9894 32.3797 24.7375 32.4999 24.5663 32.5806C24.5483 32.5891 24.5311 32.5972 24.5148 32.6048C24.4985 32.5971 24.4812 32.5889 24.463 32.5802C24.2918 32.4989 24.0399 32.3778 23.7189 32.2198C23.0767 31.9036 22.1582 31.4395 21.0555 30.8491C18.8491 29.6678 15.9103 27.9833 12.9745 25.9687C10.0353 23.9517 7.11733 21.6162 4.93933 19.1363C2.75267 16.6464 1.36914 14.0763 1.36914 11.5823C1.36914 6.00547 6.86164 1.29517 13.7663 1.29517C18.1478 1.29517 21.9671 3.12763 24.1161 5.95214Z" stroke="#292929"/>
</svg>
