<svg width="34" height="31" viewBox="0 0 34 31" fill="none" xmlns="http://www.w3.org/2000/svg">
<path d="M33.6074 0.376159C33.416 0.202662 33.1742 0.0825394 32.9104 0.0299147C32.6465 -0.0227101 32.3717 -0.00564958 32.1182 0.0790905L0.915311 10.4119C0.646212 10.5048 0.414533 10.6701 0.251046 10.8858C0.0875588 11.1016 0 11.3574 0 11.6195C0 11.8816 0.0875588 12.1375 0.251046 12.3532C0.414533 12.5689 0.646212 12.7342 0.915311 12.8272L13.0986 17.2574L22.0907 9.0428L24.0905 10.864L15.0559 19.0914L19.9349 30.1863C20.04 30.4266 20.2219 30.6327 20.4571 30.7777C20.6923 30.9228 20.9699 31.0002 21.2539 31C21.5405 30.9946 21.8186 30.9103 22.0516 30.7581C22.2845 30.606 22.4613 30.3931 22.5588 30.1475L33.9053 1.73234C34.0019 1.50382 34.0252 1.255 33.9725 1.01489C33.9197 0.774768 33.7931 0.55325 33.6074 0.376159Z" fill="#292929"/>
</svg>
